<svg width="1701" height="1691" xmlns="http://www.w3.org/2000/svg" xmlns:xlink="http://www.w3.org/1999/xlink" xml:space="preserve" overflow="hidden"><g transform="translate(-155 -499)"><g><path d="M1504.66 1063.27 1812.4 1402.93C1860.95 1465.42 1847.77 1492.14 1816.71 1526.99L1218.06 2145.61C1186.63 2175.16 1171.45 2185.21 1123.76 2185.5L250.452 2183.43C118.535 2183.41 158.706 2186.27 209.828 2118L504.035 1784.62C531.49 1760.08 546.905 1764.69 591.274 1764.65L1327.84 1764.08C1369.84 1763.85 1427.66 1721.23 1439.81 1671.92 1440.43 1655.31 1442.63 1257.85 1442.1 1053.3 1447.37 995.527 1421.21 954.992 1504.66 1063.27Z" stroke="#BFF234" stroke-width="6.875" stroke-linecap="butt" stroke-linejoin="miter" stroke-miterlimit="8" stroke-opacity="1" fill="#BFF234" fill-rule="evenodd" fill-opacity="1"/><path d="M506.538 1628.73 198.623 1289.07C150.036 1226.58 163.231 1199.86 194.309 1165.01L793.307 546.391C824.76 516.836 839.955 506.79 887.665 506.5L1761.5 508.573C1893.49 508.59 1853.3 505.726 1802.14 574L1507.76 907.376C1480.29 931.92 1464.87 927.306 1420.47 927.355L683.465 927.918C641.445 928.145 583.585 970.773 571.429 1020.08 570.814 1036.69 568.605 1434.15 569.136 1638.7 563.862 1696.47 590.038 1737.01 506.538 1628.73Z" stroke="#BFF234" stroke-width="6.875" stroke-linecap="butt" stroke-linejoin="miter" stroke-miterlimit="8" stroke-opacity="1" fill="#BFF234" fill-rule="evenodd" fill-opacity="1"/><text fill="#BFF234" fill-opacity="1" font-family="Poppins,Poppins_MSFontService,sans-serif" font-style="normal" font-variant="normal" font-weight="400" font-stretch="normal" font-size="147" text-anchor="start" direction="ltr" writing-mode="lr-tb" unicode-bidi="normal" text-decoration="none" transform="matrix(1 0 0 1 951.625 1193)">Is </text><text fill="#BFF234" fill-opacity="1" font-family="Poppins,Poppins_MSFontService,sans-serif" font-style="normal" font-variant="normal" font-weight="400" font-stretch="normal" font-size="147" text-anchor="start" direction="ltr" writing-mode="lr-tb" unicode-bidi="normal" text-decoration="none" transform="matrix(1 0 0 1 675.777 1369)">Everyone </text><text fill="#BFF234" fill-opacity="1" font-family="Poppins,Poppins_MSFontService,sans-serif" font-style="normal" font-variant="normal" font-weight="400" font-stretch="normal" font-size="147" text-anchor="start" direction="ltr" writing-mode="lr-tb" unicode-bidi="normal" text-decoration="none" transform="matrix(1 0 0 1 845.934 1545)">Safe</text></g></g></svg>
